<svg id="Capa_1" enable-background="new 0 0 512 512" height="512" viewBox="0 0 512 512" width="512" xmlns="http://www.w3.org/2000/svg" xmlns:xlink="http://www.w3.org/1999/xlink"><linearGradient id="SVGID_1_" gradientUnits="userSpaceOnUse" x1="256" x2="256" y1="512" y2="0"><stop offset="0" stop-color="#ffc8d1"/><stop offset="1" stop-color="#fff6f7"/></linearGradient><linearGradient id="lg1"><stop offset="0" stop-color="#ffa68d"/><stop offset="1" stop-color="#fd3a84"/></linearGradient><linearGradient id="SVGID_2_" gradientUnits="userSpaceOnUse" x1="256" x2="256" xlink:href="#lg1" y1="409.5" y2="98.055"/><linearGradient id="SVGID_3_" gradientUnits="userSpaceOnUse" x1="256" x2="256" xlink:href="#lg1" y1="409.441" y2="97.997"/><linearGradient id="SVGID_4_" gradientUnits="userSpaceOnUse" x1="166.059" x2="166.059" xlink:href="#lg1" y1="409.441" y2="97.997"/><linearGradient id="SVGID_6_" gradientUnits="userSpaceOnUse" x1="345.941" x2="345.941" xlink:href="#lg1" y1="409.441" y2="97.997"/><g><circle cx="256" cy="256" fill="url(#SVGID_1_)" r="256"/><g><path d="m102.5 400.506c0 5.036 3.957 8.994 8.994 8.994h289.012c5.037 0 8.994-3.958 8.994-8.994v-208.065h-307zm207.465-162.494h35.977c5.037 0 8.994 3.957 8.994 8.994 0 5.036-3.957 8.994-8.994 8.994h-35.977c-5.037 0-8.994-3.958-8.994-8.994 0-5.037 3.957-8.994 8.994-8.994zm0 53.965h35.977c5.037 0 8.994 3.957 8.994 8.994 0 5.036-3.957 8.994-8.994 8.994h-35.977c-5.037 0-8.994-3.958-8.994-8.994 0-5.038 3.957-8.994 8.994-8.994zm0 53.964h35.977c5.037 0 8.994 3.957 8.994 8.994 0 5.036-3.957 8.994-8.994 8.994h-35.977c-5.037 0-8.994-3.958-8.994-8.994 0-5.037 3.957-8.994 8.994-8.994zm-71.953-107.929h35.977c5.037 0 8.994 3.957 8.994 8.994 0 5.036-3.957 8.994-8.994 8.994h-35.977c-5.037 0-8.994-3.958-8.994-8.994 0-5.037 3.956-8.994 8.994-8.994zm0 53.965h35.977c5.037 0 8.994 3.957 8.994 8.994 0 5.036-3.957 8.994-8.994 8.994h-35.977c-5.037 0-8.994-3.958-8.994-8.994 0-5.038 3.956-8.994 8.994-8.994zm0 53.964h35.977c5.037 0 8.994 3.957 8.994 8.994 0 5.036-3.957 8.994-8.994 8.994h-35.977c-5.037 0-8.994-3.958-8.994-8.994 0-5.037 3.956-8.994 8.994-8.994zm-71.953-107.929h35.977c5.037 0 8.994 3.957 8.994 8.994 0 5.036-3.957 8.994-8.994 8.994h-35.977c-5.037 0-8.994-3.958-8.994-8.994-.001-5.037 3.956-8.994 8.994-8.994zm0 53.965h35.977c5.037 0 8.994 3.957 8.994 8.994 0 5.036-3.957 8.994-8.994 8.994h-35.977c-5.037 0-8.994-3.958-8.994-8.994-.001-5.038 3.956-8.994 8.994-8.994zm0 53.964h35.977c5.037 0 8.994 3.957 8.994 8.994 0 5.036-3.957 8.994-8.994 8.994h-35.977c-5.037 0-8.994-3.958-8.994-8.994-.001-5.037 3.956-8.994 8.994-8.994z" fill="url(#SVGID_2_)"/><path d="m400.506 120.488h-45.57v17.988c0 5.036-3.957 8.994-8.994 8.994s-8.994-3.958-8.994-8.994v-17.988h-71.953v17.988c0 5.036-3.957 8.994-8.994 8.994s-8.994-3.958-8.994-8.994v-17.988h-71.953v17.988c0 5.036-3.957 8.994-8.994 8.994s-8.994-3.958-8.994-8.994v-17.988h-45.57c-5.037 0-8.994 3.957-8.994 8.994v44.971h307v-44.971c-.002-5.037-3.959-8.994-8.996-8.994z" fill="url(#SVGID_3_)"/><path d="m175.053 111.494c0-5.037-3.957-8.994-8.994-8.994s-8.994 3.957-8.994 8.994v8.994h17.988z" fill="url(#SVGID_4_)"/><path d="m264.994 111.494c0-5.037-3.957-8.994-8.994-8.994s-8.994 3.957-8.994 8.994v8.994h17.988z" fill="url(#SVGID_3_)"/><path d="m354.936 111.494c0-5.037-3.957-8.994-8.994-8.994s-8.994 3.957-8.994 8.994v8.994h17.988z" fill="url(#SVGID_6_)"/></g></g></svg>